# xmcd CD database file
#
# Track frame offsets:
#	187
#	18632
#	37240
#	53890
#
# Disc length: 892 seconds
#
# Revision: 0
# Processed by: cddbd v1.5.1PL0 Copyright (c) Steve Scherf et al.
# Submitted via: CDex 1.51
#
DISCID=33037a04
DTITLE=THUNDER - Love Worth Dying For (EP)
DYEAR=1997
DGENRE=Hard Rock
TTITLE0=Love Worth Dying For
TTITLE1=Somebody To Love
TTITLE2=Lethal Combination
TTITLE3=Love Worth Dying For (Acoustic Version)
EXTD=YEAR: 1997
EXTT0=
EXTT1=
EXTT2=
EXTT3=
PLAYORDER=
